<?xml version="1.0" encoding="utf-8"?>
<!-- Generator: Adobe Illustrator 24.0.1, SVG Export Plug-In . SVG Version: 6.00 Build 0)  -->
<svg version="1.1" id="Isolation_Mode" xmlns="http://www.w3.org/2000/svg" xmlns:xlink="http://www.w3.org/1999/xlink" x="0px"
	 y="0px" viewBox="0 0 521.88 515.63" style="enable-background:new 0 0 521.88 515.63;" xml:space="preserve">
<style type="text/css">
	.st0{opacity:0.2;fill:#00A5A4;}
	.st1{fill:#00A5A4;}
</style>
<circle class="st0" cx="257.81" cy="256.25" r="243.75"/>
<g>
	<path class="st1" d="M333.45,107.43c-2.75,0-5.5,0.58-8.17,1.67c-0.25,0.08-0.5,0.25-0.83,0.33l-126.07,69.27v150.79l126.07,69.19
		c0.33,0.17,0.58,0.33,0.83,0.42c2.67,1.08,5.33,1.67,8.17,1.67c5.58,0,10.83-2.17,14.92-6.08c4.08-4.08,6.42-9.5,6.42-15.33v-250.5
		C354.78,117.01,345.2,107.43,333.45,107.43z"/>
	<path class="st1" d="M102.12,205.76v96.67c0,11.75,9.58,21.33,21.42,21.33h58.18V184.43h-58.18
		C111.7,184.43,102.12,194.01,102.12,205.76z"/>
</g>
</svg>
