<?xml version="1.0" encoding="utf-8"?>
<!-- Generator: Adobe Illustrator 24.0.1, SVG Export Plug-In . SVG Version: 6.00 Build 0)  -->
<svg version="1.1" id="Isolation_Mode" xmlns="http://www.w3.org/2000/svg" xmlns:xlink="http://www.w3.org/1999/xlink" x="0px"
	 y="0px" viewBox="0 0 521.88 515.63" style="enable-background:new 0 0 521.88 515.63;" xml:space="preserve">
<style type="text/css">
	.st0{opacity:0.2;fill:#00A5A4;}
	.st1{fill:#00A5A4;}
</style>
<circle class="st0" cx="257.81" cy="256.25" r="243.75"/>
<g>
	<path class="st1" d="M345.87,203.45c-3.26-3.26-8.53-3.26-11.78,0s-3.26,8.53,0,11.78c21.42,21.43,21.42,56.27,0,77.69
		c-3.26,3.26-3.26,8.53,0,11.78c1.63,1.63,3.76,2.44,5.89,2.44s4.26-0.81,5.89-2.44C373.78,276.8,373.78,231.38,345.87,203.45z"/>
	<path class="st1" d="M375.24,174.09c-3.26-3.26-8.53-3.26-11.78,0c-3.26,3.26-3.26,8.53,0,11.78c37.61,37.61,37.61,98.81,0,136.43
		c-3.26,3.26-3.26,8.53,0,11.78c1.63,1.63,3.76,2.44,5.89,2.44s4.26-0.81,5.89-2.44C419.35,289.98,419.35,218.2,375.24,174.09z"/>
	<path class="st1" d="M407.51,141.82c-3.26-3.26-8.53-3.26-11.78,0c-3.26,3.26-3.26,8.53,0,11.78
		c26.84,26.84,41.63,62.52,41.63,100.49c0,37.96-14.78,73.64-41.63,100.49c-3.26,3.26-3.26,8.53,0,11.78
		c1.63,1.63,3.76,2.44,5.89,2.44c2.13,0,4.26-0.81,5.89-2.44c29.99-29.99,46.51-69.86,46.51-112.27
		C454.02,211.67,437.5,171.81,407.51,141.82z"/>
	<path class="st1" d="M285.32,107.43c-2.75,0-5.5,0.58-8.17,1.67c-0.25,0.08-0.5,0.25-0.83,0.33l-126.07,69.27v150.79l126.07,69.19
		c0.33,0.17,0.58,0.33,0.83,0.42c2.67,1.08,5.33,1.67,8.17,1.67c5.58,0,10.83-2.17,14.92-6.08c4.08-4.08,6.42-9.5,6.42-15.33v-250.5
		C306.65,117.01,297.07,107.43,285.32,107.43z"/>
	<path class="st1" d="M53.98,205.76v96.67c0,11.75,9.58,21.33,21.42,21.33h58.18V184.43H75.4
		C63.57,184.43,53.98,194.01,53.98,205.76z"/>
</g>
</svg>
